<svg width="179" height="183" viewBox="0 0 179 183" fill="none" xmlns="http://www.w3.org/2000/svg">
<g clip-path="url(#clip0_1432_2)">
<path d="M110.232 161.058L103.236 153.193L96.6379 161.742L89.5279 154.789L82.418 161.742L75.82 153.193L68.8238 161.058C68.8238 161.058 62.112 150.914 57.5616 141.054C57.5616 141.054 53.5232 150.344 53.3525 157.126L63.7615 168.923H89.5279H115.294L125.703 157.126C125.533 150.344 121.494 141.054 121.494 141.054C116.944 150.914 110.232 161.058 110.232 161.058Z" fill="white"/>
<path d="M148.967 121.107L125.135 118.486C121.95 121.221 117.741 122.931 113.19 122.931C109.664 122.931 106.251 121.905 103.35 120.081C99.3684 123.045 94.5337 124.698 89.4714 124.698C84.4091 124.698 79.5743 123.045 75.5928 120.081C72.6919 121.905 69.2791 122.931 65.7526 122.931C61.2022 122.931 57.05 121.278 53.8079 118.486L30.0322 121.05C37.9954 138.148 47.3805 149.888 47.3805 149.888C50.6795 135.583 57.2775 125.495 57.2775 125.495L66.492 139.173L72.9763 130.169L82.5889 144.246L89.4145 135.469L96.24 144.246L105.853 130.169L112.337 139.173L121.551 125.495C121.551 125.495 128.149 135.526 131.448 149.888C131.562 149.945 141.004 138.148 148.967 121.107Z" fill="white"/>
<path d="M150.447 107.03L131.563 104.979C131.506 107.714 130.823 110.336 129.686 112.672L149.65 114.838L158.353 115.807L154.656 123.729C146.465 141.282 136.909 153.307 136.511 153.82L128.434 163.908L118.082 175.078H115.238H89.4716H63.7052H60.8612L50.6229 163.965L42.546 153.877C42.1479 153.364 32.5921 141.339 24.4014 123.786L20.7043 115.864L29.4068 114.895L49.3716 112.729C48.234 110.393 47.5514 107.828 47.4945 105.036L28.6105 107.087L19.9079 108.056L9.04395 109.253L13.6512 119.169L17.3484 127.091C25.9372 145.5 36.0617 158.266 36.4599 158.779L44.5368 168.866L57.4485 183H60.975H63.819H89.5854H115.352H118.196H121.722L134.634 168.866L142.711 158.779C143.166 158.266 153.291 145.5 161.822 127.091L165.52 119.169L170.127 109.253L159.263 108.056L150.447 107.03Z" fill="#C8C9CA"/>
<path d="M158.068 70.7836C147.545 95.176 132.756 96.4298 129.173 96.0308C132.472 100.875 142.824 100.989 149.877 95.4609C151.754 100.134 156.361 103.497 161.708 103.497C168.761 103.497 174.506 97.7406 174.506 90.6736C174.506 76.1978 158.068 70.7836 158.068 70.7836Z" fill="#C8C9CA"/>
<path d="M62.2832 92.9533C57.3346 94.4351 53.6943 99.1084 53.6943 104.58C53.6943 111.248 59.0979 116.719 65.8097 116.719C69.9619 116.719 73.6022 114.61 75.7636 111.419C78.8351 115.693 83.8405 118.429 89.5285 118.429C95.2164 118.429 100.165 115.636 103.293 111.419C105.455 114.61 109.152 116.719 113.247 116.719C119.902 116.719 125.363 111.305 125.363 104.58C125.363 99.1084 121.722 94.4921 116.774 92.9533C113.19 91.4145 109.664 88.337 107.161 84.2336C103.976 86.2283 96.0696 89.4198 89.5853 89.5338C83.2717 89.6478 77.0718 87.3111 72.0096 84.2336C69.3931 88.337 65.8666 91.4145 62.2832 92.9533Z" fill="white"/>
<path d="M29.122 95.4609C36.1182 101.046 46.4703 100.932 49.8262 96.0308C46.2428 96.4298 31.511 95.2329 20.9314 70.7836C20.9314 70.7836 4.49316 76.1978 4.49316 90.6166C4.49316 97.6836 10.238 103.44 17.2911 103.44C22.6377 103.44 27.245 100.134 29.122 95.4609Z" fill="#C8C9CA"/>
<path d="M121.609 44.9664C114.328 51.5774 109.607 60.639 109.266 69.8147C108.64 86.9692 128.036 97.7976 142.654 85.0314C156.135 72.7213 152.38 52.6032 179.057 48.3859C164.098 31.8583 138.104 30.0346 121.609 44.9664ZM129.23 82.9798C122.462 82.9798 117.001 77.5086 117.001 70.7266C117.001 63.9446 122.462 58.4734 129.23 58.4734C135.999 58.4734 141.46 63.9446 141.46 70.7266C141.46 77.5086 135.942 82.9798 129.23 82.9798Z" fill="white"/>
<path d="M69.7344 69.8147C69.3931 60.639 64.729 51.5774 57.3915 44.9664C40.9533 30.0346 14.9024 31.8583 0 48.3859C26.6765 52.6602 22.9225 72.7213 36.4029 85.0314C50.9641 97.8546 70.4169 86.9692 69.7344 69.8147ZM49.8265 82.9798C43.0578 82.9798 37.5974 77.5086 37.5974 70.7266C37.5974 63.9446 43.0578 58.4734 49.8265 58.4734C56.5952 58.4734 62.0556 63.9446 62.0556 70.7266C62.0556 77.5086 56.5383 82.9798 49.8265 82.9798Z" fill="white"/>
<path d="M49.8268 77.6795C53.6278 77.6795 56.7092 74.5921 56.7092 70.7836C56.7092 66.975 53.6278 63.8876 49.8268 63.8876C46.0257 63.8876 42.9443 66.975 42.9443 70.7836C42.9443 74.5921 46.0257 77.6795 49.8268 77.6795Z" fill="white"/>
<path d="M129.23 77.6795C133.031 77.6795 136.113 74.5921 136.113 70.7836C136.113 66.975 133.031 63.8876 129.23 63.8876C125.429 63.8876 122.348 66.975 122.348 70.7836C122.348 74.5921 125.429 77.6795 129.23 77.6795Z" fill="white"/>
<path d="M105.682 0L89.4715 28.0969L73.3177 0H54.8887V36.1327C62.6243 40.977 67.1178 46.2202 70.3599 52.8882V26.843L89.5283 60.1261L108.697 26.843V52.8882C111.939 46.2202 116.432 41.0339 124.168 36.1327V0H105.682Z" fill="white"/>
<path d="M128.832 0.455933V10.1445C137.99 8.60573 146.92 10.7144 146.92 10.7144C146.92 10.7144 139.639 2.45064 128.832 0.455933Z" fill="#C8C9CA"/>
<path d="M128.832 14.6468V33.568C151.868 25.3043 167.624 34.8219 167.624 34.8219C167.624 34.8219 151.868 14.6468 128.832 14.6468Z" fill="#C8C9CA"/>
<path d="M50.3387 14.6468V33.568C27.3025 25.3043 11.5469 34.8219 11.5469 34.8219C11.5469 34.8219 27.1319 14.6468 50.3387 14.6468Z" fill="#C8C9CA"/>
<path d="M50.3387 0.455933V10.1445C41.1811 8.60573 32.251 10.7144 32.251 10.7144C32.251 10.7144 39.5316 2.45064 50.3387 0.455933Z" fill="#C8C9CA"/>
<path d="M89.5287 73.8611L75.4795 49.1837V69.1308C75.5364 69.9287 75.5364 70.6696 75.5364 71.4675C75.5364 79.0473 84.2389 83.2077 89.5856 83.2077C94.9323 83.2077 103.635 78.9903 103.635 71.4675C103.635 70.6696 103.635 69.9287 103.692 69.1308V49.1837L89.5287 73.8611Z" fill="white"/>
</g>
<defs>
<clipPath id="clip0_1432_2">
<rect width="179" height="183" fill="white"/>
</clipPath>
</defs>
</svg>
